<svg width="22" height="22" viewBox="0 0 22 22" fill="none" xmlns="http://www.w3.org/2000/svg">
<path d="M2.85312 22C2.11979 22 1.49479 21.7416 0.978125 21.225C0.461458 20.7083 0.203125 20.0833 0.203125 19.35V5.04995C0.203125 4.31662 0.461458 3.69162 0.978125 3.17495C1.49479 2.65828 2.11979 2.39995 2.85312 2.39995H12.2781L9.62812 5.04995H2.85312V19.35H17.1531V12.575L19.8031 9.92495V19.35C19.8031 20.0833 19.5448 20.7083 19.0281 21.225C18.5115 21.7416 17.8865 22 17.1531 22H2.85312ZM13.7531 3.72495L15.6531 5.62495L9.32812 11.9V12.875H10.2781L16.6031 6.57495L18.4531 8.44995L12.1781 14.75C11.9281 15 11.6405 15.1916 11.3151 15.325C10.9905 15.4583 10.6531 15.525 10.3031 15.525H8.00312C7.63646 15.525 7.32379 15.3956 7.06512 15.137C6.80713 14.879 6.67812 14.5666 6.67812 14.2V11.9C6.67812 11.55 6.74479 11.2123 6.87812 10.887C7.01146 10.5623 7.20312 10.275 7.45312 10.025L13.7531 3.72495ZM18.4531 8.44995L13.7531 3.72495L16.2281 1.24995C16.7615 0.716618 17.3948 0.449951 18.1281 0.449951C18.8615 0.449951 19.4865 0.716618 20.0031 1.24995L20.9531 2.22495C21.4698 2.75828 21.7281 3.38328 21.7281 4.09995C21.7281 4.81662 21.4698 5.43328 20.9531 5.94995L18.4531 8.44995Z" fill="white"/>
</svg>
