<?xml version="1.0" encoding="UTF-8"?>
<!-- Generated by Pixelmator Pro 3.6.10 -->
<svg width="634" height="650" viewBox="0 0 634 650" xmlns="http://www.w3.org/2000/svg">
    <clipPath id="clipPath1">
        <path clip-rule="evenodd" d="M 634 325 C 634 149.92572 492.07428 8 317 8 C 141.925735 8 0 149.92572 0 325 C 0 500.074265 141.925735 642 317 642 C 492.07428 642 634 500.074265 634 325 Z"/>
    </clipPath>
    <g id="Flag" clip-path="url(#clipPath1)">
        <path id="Pfad" fill="#b31942" stroke="none" d="M -155 0 L 1080 0 L 1080 650 L -155 650"/>
        <path id="path1" fill="#000000" stroke="#ffffff" stroke-width="50" d="M -155 75 L 1080 75 M 1080 175 L -155 175 M -155 275 L 1080 275 M 1080 375 L -155 375 M -155 475 L 1080 475 M 1080 575 L -155 575"/>
        <path id="path2" fill="#0a3161" stroke="none" d="M -155 0 L 339 0 L 339 350 L -155 350"/>
        <g id="Gruppe">
            <g id="s18">
                <g id="g1">
                    <g id="g2">
                        <g id="g3">
                            <g id="g4">
                                <path id="path3" fill="#ffffff" stroke="none" d="M 9.666672 50 L 21.422379 86.180359 L -9.354462 63.819641 L 28.68779 63.819641 L -2.089035 86.180359 Z"/>
                                <g id="g5">
                                    <path id="path4" fill="#ffffff" stroke="none" d="M 9.666672 120 L 21.422379 156.180328 L -9.354462 133.819641 L 28.68779 133.819641 L -2.089035 156.180328 Z"/>
                                </g>
                                <g id="g6">
                                    <path id="path5" fill="#ffffff" stroke="none" d="M 9.666672 190 L 21.422379 226.180328 L -9.354462 203.819672 L 28.68779 203.819672 L -2.089035 226.180328 Z"/>
                                </g>
                                <g id="g7">
                                    <path id="path6" fill="#ffffff" stroke="none" d="M 9.666672 260 L 21.422379 296.180328 L -9.354462 273.819672 L 28.68779 273.819672 L -2.089035 296.180328 Z"/>
                                </g>
                            </g>
                        </g>
                    </g>
                </g>
            </g>
            <g id="g8">
                <g id="g9">
                    <g id="g10">
                        <g id="g11">
                            <g id="g12">
                                <path id="path7" fill="#ffffff" stroke="none" d="M 50.833328 15 L 62.589035 51.180359 L 31.812195 28.819641 L 69.854462 28.819641 L 39.077637 51.180359 Z"/>
                                <g id="g13">
                                    <path id="path8" fill="#ffffff" stroke="none" d="M 50.833328 85 L 62.589035 121.180359 L 31.812195 98.819641 L 69.854462 98.819641 L 39.077637 121.180359 Z"/>
                                </g>
                                <g id="g14">
                                    <path id="path9" fill="#ffffff" stroke="none" d="M 50.833328 155 L 62.589035 191.180328 L 31.812195 168.819672 L 69.854462 168.819672 L 39.077637 191.180328 Z"/>
                                </g>
                                <g id="g15">
                                    <path id="path10" fill="#ffffff" stroke="none" d="M 50.833328 225 L 62.589035 261.180328 L 31.812195 238.819672 L 69.854462 238.819672 L 39.077637 261.180328 Z"/>
                                </g>
                            </g>
                            <g id="g16">
                                <path id="path11" fill="#ffffff" stroke="none" d="M 50.833328 295 L 62.589035 331.180328 L 31.812195 308.819672 L 69.854462 308.819672 L 39.077637 331.180328 Z"/>
                            </g>
                        </g>
                        <g id="g17">
                            <g id="g18">
                                <path id="path12" fill="#ffffff" stroke="none" d="M 92 50 L 103.755707 86.180359 L 72.978867 63.819641 L 111.021118 63.819641 L 80.244293 86.180359 Z"/>
                                <g id="g19">
                                    <path id="path13" fill="#ffffff" stroke="none" d="M 92 120 L 103.755707 156.180328 L 72.978867 133.819641 L 111.021118 133.819641 L 80.244293 156.180328 Z"/>
                                </g>
                                <g id="g20">
                                    <path id="path14" fill="#ffffff" stroke="none" d="M 92 190 L 103.755707 226.180328 L 72.978867 203.819672 L 111.021118 203.819672 L 80.244293 226.180328 Z"/>
                                </g>
                                <g id="g21">
                                    <path id="path15" fill="#ffffff" stroke="none" d="M 92 260 L 103.755707 296.180328 L 72.978867 273.819672 L 111.021118 273.819672 L 80.244293 296.180328 Z"/>
                                </g>
                            </g>
                        </g>
                    </g>
                    <g id="g22">
                        <g id="g23">
                            <g id="g24">
                                <g id="g25">
                                    <path id="path16" fill="#ffffff" stroke="none" d="M 133.166656 15 L 144.922363 51.180359 L 114.145538 28.819641 L 152.187805 28.819641 L 121.41095 51.180359 Z"/>
                                    <g id="g26">
                                        <path id="path17" fill="#ffffff" stroke="none" d="M 133.166656 85 L 144.922363 121.180359 L 114.145538 98.819641 L 152.187805 98.819641 L 121.41095 121.180359 Z"/>
                                    </g>
                                    <g id="g27">
                                        <path id="path18" fill="#ffffff" stroke="none" d="M 133.166656 155 L 144.922363 191.180328 L 114.145538 168.819672 L 152.187805 168.819672 L 121.41095 191.180328 Z"/>
                                    </g>
                                    <g id="g28">
                                        <path id="path19" fill="#ffffff" stroke="none" d="M 133.166656 225 L 144.922363 261.180328 L 114.145538 238.819672 L 152.187805 238.819672 L 121.41095 261.180328 Z"/>
                                    </g>
                                </g>
                                <g id="g29">
                                    <path id="path20" fill="#ffffff" stroke="none" d="M 133.166656 295 L 144.922363 331.180328 L 114.145538 308.819672 L 152.187805 308.819672 L 121.41095 331.180328 Z"/>
                                </g>
                            </g>
                            <g id="g30">
                                <g id="g31">
                                    <path id="path21" fill="#ffffff" stroke="none" d="M 174.333344 50 L 186.08905 86.180359 L 155.312195 63.819641 L 193.354462 63.819641 L 162.577637 86.180359 Z"/>
                                    <g id="g32">
                                        <path id="path22" fill="#ffffff" stroke="none" d="M 174.333344 120 L 186.08905 156.180328 L 155.312195 133.819641 L 193.354462 133.819641 L 162.577637 156.180328 Z"/>
                                    </g>
                                    <g id="g33">
                                        <path id="path23" fill="#ffffff" stroke="none" d="M 174.333344 190 L 186.08905 226.180328 L 155.312195 203.819672 L 193.354462 203.819672 L 162.577637 226.180328 Z"/>
                                    </g>
                                    <g id="g34">
                                        <path id="path24" fill="#ffffff" stroke="none" d="M 174.333344 260 L 186.08905 296.180328 L 155.312195 273.819672 L 193.354462 273.819672 L 162.577637 296.180328 Z"/>
                                    </g>
                                </g>
                            </g>
                        </g>
                    </g>
                </g>
            </g>
            <g id="g35">
                <g id="g36">
                    <g id="g37">
                        <g id="g38">
                            <path id="path25" fill="#ffffff" stroke="none" d="M 215.5 15 L 227.255707 51.180359 L 196.478882 28.819641 L 234.521118 28.819641 L 203.744293 51.180359 Z"/>
                            <g id="g39">
                                <path id="path26" fill="#ffffff" stroke="none" d="M 215.5 85 L 227.255707 121.180359 L 196.478882 98.819641 L 234.521118 98.819641 L 203.744293 121.180359 Z"/>
                            </g>
                            <g id="g40">
                                <path id="path27" fill="#ffffff" stroke="none" d="M 215.5 155 L 227.255707 191.180328 L 196.478882 168.819672 L 234.521118 168.819672 L 203.744293 191.180328 Z"/>
                            </g>
                            <g id="g41">
                                <path id="path28" fill="#ffffff" stroke="none" d="M 215.5 225 L 227.255707 261.180328 L 196.478882 238.819672 L 234.521118 238.819672 L 203.744293 261.180328 Z"/>
                            </g>
                        </g>
                        <g id="g42">
                            <path id="path29" fill="#ffffff" stroke="none" d="M 215.5 295 L 227.255707 331.180328 L 196.478882 308.819672 L 234.521118 308.819672 L 203.744293 331.180328 Z"/>
                        </g>
                    </g>
                    <g id="g43">
                        <g id="g44">
                            <path id="path30" fill="#ffffff" stroke="none" d="M 256.666656 50 L 268.422363 86.180359 L 237.645538 63.819641 L 275.687805 63.819641 L 244.91095 86.180359 Z"/>
                            <g id="g45">
                                <path id="path31" fill="#ffffff" stroke="none" d="M 256.666656 120 L 268.422363 156.180328 L 237.645538 133.819641 L 275.687805 133.819641 L 244.91095 156.180328 Z"/>
                            </g>
                            <g id="g46">
                                <path id="path32" fill="#ffffff" stroke="none" d="M 256.666656 190 L 268.422363 226.180328 L 237.645538 203.819672 L 275.687805 203.819672 L 244.91095 226.180328 Z"/>
                            </g>
                            <g id="g47">
                                <path id="path33" fill="#ffffff" stroke="none" d="M 256.666656 260 L 268.422363 296.180328 L 237.645538 273.819672 L 275.687805 273.819672 L 244.91095 296.180328 Z"/>
                            </g>
                        </g>
                    </g>
                </g>
            </g>
            <g id="g48">
                <g id="g49">
                    <g id="g50">
                        <path id="path34" fill="#ffffff" stroke="none" d="M 297.833344 15 L 309.58905 51.180359 L 278.812195 28.819641 L 316.854462 28.819641 L 286.077637 51.180359 Z"/>
                        <g id="g51">
                            <path id="path35" fill="#ffffff" stroke="none" d="M 297.833344 85 L 309.58905 121.180359 L 278.812195 98.819641 L 316.854462 98.819641 L 286.077637 121.180359 Z"/>
                        </g>
                        <g id="g52">
                            <path id="path36" fill="#ffffff" stroke="none" d="M 297.833344 155 L 309.58905 191.180328 L 278.812195 168.819672 L 316.854462 168.819672 L 286.077637 191.180328 Z"/>
                        </g>
                        <g id="g53">
                            <path id="path37" fill="#ffffff" stroke="none" d="M 297.833344 225 L 309.58905 261.180328 L 278.812195 238.819672 L 316.854462 238.819672 L 286.077637 261.180328 Z"/>
                        </g>
                    </g>
                    <g id="g54">
                        <path id="path38" fill="#ffffff" stroke="none" d="M 297.833344 295 L 309.58905 331.180328 L 278.812195 308.819672 L 316.854462 308.819672 L 286.077637 331.180328 Z"/>
                    </g>
                </g>
            </g>
        </g>
    </g>
</svg>
